<?xml version="1.0" encoding="UTF-8"?>
<svg id="Camada_1" data-name="Camada 1" xmlns="http://www.w3.org/2000/svg" viewBox="0 0 1176.79 433.95">
  <defs>
    <style>
      .cls-1 {
        fill: #0067ff;
      }

      .cls-1, .cls-2, .cls-3, .cls-4, .cls-5, .cls-6, .cls-7 {
        stroke-width: 0px;
      }

      .cls-2 {
        fill: #0067ff;
      }

      .cls-3 {
        fill: #007dc2;
      }

      .cls-4 {
        fill: #5abdfe;
      }

      .cls-5 {
        fill: #bce4fe;
      }

      .cls-6 {
        fill: #0096ff;
      }

      .cls-7 {
        fill: #76b5e3;
      }
    </style>
  </defs>
  <g>
    <path class="cls-2" d="M903.08,180.02h188.6v-9.63h-188.6c-5.08.01-9.71,4.52-9.72,9.55v90.19l9.72.08v-42.32h150.26v-10.1h-150.26v-37.76Z"/>
    <path class="cls-2" d="M437.35,180.02h150.26v-9.63h-150.26v-43.26h-9.72v90.65c0,5.11,4.64,10.1,9.72,10.1h188.6v-10.1h-188.6v-37.76Z"/>
    <path class="cls-2" d="M669.92,180.02h177.73v37.76h-177.73v-37.76ZM847.65,170.39h-177.73c-5.07,0-9.77,4.53-9.78,9.55v90.19l9.78.08v-42.32h177.73c5.09-.01,9.63-5.02,9.63-10.1v-37.76c0-5.08-4.54-9.63-9.63-9.63"/>
  </g>
  <polygon class="cls-7" points="298.13 170.64 295.83 171.17 298.13 172.3 298.13 170.64"/>
  <polygon class="cls-7" points="147.7 165.79 147.7 167.69 150.33 167.08 147.7 165.79"/>
  <polygon class="cls-7" points="189.25 99.94 189.25 110.77 204.19 107.27 189.25 99.94"/>
  <g>
    <polygon class="cls-4" points="204.19 107.27 189.25 99.94 189.25 110.77 204.19 107.27"/>
    <polygon class="cls-4" points="218.7 236.45 256.58 255.04 256.58 227.57 218.7 236.45"/>
    <polygon class="cls-4" points="204.19 107.27 256.58 132.96 256.58 151.98 295.83 171.17 298.13 170.64 298.13 125.33 242.74 98.24 204.19 107.27"/>
    <polygon class="cls-4" points="189.25 157.96 189.25 110.77 147.7 120.51 147.7 165.79 150.33 167.08 189.25 157.96"/>
    <polygon class="cls-4" points="256.58 180.37 256.58 227.57 298.13 217.83 298.13 172.3 295.83 171.17 256.58 180.37"/>
    <polygon class="cls-4" points="218.7 236.45 189.25 222 189.25 186.1 150.33 167.08 147.7 167.69 147.7 212.77 203.43 240.03 218.7 236.45"/>
  </g>
  <polygon class="cls-3" points="243.03 145.36 189.25 157.96 189.25 186.1 203.14 192.9 256.58 180.37 256.58 151.98 243.03 145.36"/>
  <polygon class="cls-1" points="256.58 180.37 256.58 151.98 243.03 145.36 189.25 157.96 189.25 186.1 203.14 192.9 256.58 180.37"/>
  <g>
    <polygon class="cls-6" points="256.58 151.98 256.58 132.96 204.2 107.27 189.25 110.77 189.25 157.96 243.03 145.36 256.58 151.98"/>
    <polygon class="cls-6" points="203.14 192.9 189.25 186.1 189.25 222 218.7 236.45 256.58 227.57 256.58 180.37 203.14 192.9"/>
    <polygon class="cls-6" points="295.83 171.17 256.58 151.98 256.58 180.37 295.83 171.17"/>
    <polygon class="cls-6" points="150.33 167.08 189.25 186.1 189.25 157.96 150.33 167.08"/>
  </g>
  <g>
    <polygon class="cls-5" points="189.25 60.52 189.25 99.94 204.2 107.27 242.74 98.24 298.12 125.32 298.12 113.93 189.25 60.52"/>
    <polygon class="cls-5" points="298.13 217.83 256.58 227.57 256.58 255.04 298.13 275.41 298.13 217.83"/>
    <polygon class="cls-5" points="189.25 99.94 147.7 79.56 147.7 120.51 189.25 110.77 189.25 99.94"/>
    <polygon class="cls-5" points="147.7 241.03 256.58 294.45 256.58 255.03 218.7 236.45 203.43 240.03 147.7 212.77 147.7 241.03"/>
    <polygon class="cls-5" points="360.77 155.96 298.13 125.33 298.13 170.64 360.77 155.96"/>
    <polygon class="cls-5" points="85.1 135.18 147.7 165.79 147.7 120.51 85.1 135.18"/>
    <polygon class="cls-5" points="361.07 203.08 298.13 172.3 298.13 217.83 361.07 203.08"/>
    <polygon class="cls-5" points="85.4 182.29 147.7 212.77 147.7 167.69 85.4 182.29"/>
  </g>
  <g>
    <path class="cls-2" d="M614.96,373.02v-35.53h6.55v35.53h-6.55Z"/>
    <path class="cls-2" d="M657.64,337.49h6.5v35.53h-6.9l-16.34-24.82v24.82h-6.5v-35.53h6.9l16.34,24.82v-24.82Z"/>
    <path class="cls-2" d="M693.47,353.02h15.94v20h-4.97l-.51-4.92c-2.38,3.45-6.5,5.33-11.52,5.33-9.85,0-17.2-7.31-17.2-18.02s7.66-18.32,18.07-18.32c8.17,0,14.51,4.62,15.94,11.52h-7c-1.22-3.6-4.62-5.58-8.88-5.58-6.55,0-11.37,4.67-11.37,12.28s4.77,12.23,11.27,12.23c5.63,0,9.79-3.55,10.25-9.03h-10v-5.48Z"/>
    <path class="cls-2" d="M721.44,373.02v-35.53h6.55v35.53h-6.55Z"/>
    <path class="cls-2" d="M764.12,337.49h6.5v35.53h-6.9l-16.34-24.82v24.82h-6.5v-35.53h6.9l16.34,24.82v-24.82Z"/>
    <path class="cls-2" d="M790.05,367.18h17.66v5.84h-24.21v-35.53h23.85v5.84h-17.31v8.73h14.41v5.79h-14.41v9.34Z"/>
    <path class="cls-2" d="M839.68,373.02l-8.17-12.84h-5.79v12.84h-6.55v-35.53h14.62c7.41,0,12.43,4.72,12.43,11.37,0,5.18-3.04,9.03-7.97,10.45l8.93,13.7h-7.51ZM825.73,343.33v11.01h7.76c4.01,0,6.14-2.13,6.14-5.48s-2.13-5.53-6.14-5.53h-7.76Z"/>
    <path class="cls-2" d="M858.05,373.02v-35.53h6.55v35.53h-6.55Z"/>
    <path class="cls-2" d="M884.04,367.18h17.66v5.84h-24.21v-35.53h23.85v5.84h-17.31v8.73h14.41v5.79h-14.41v9.34Z"/>
  </g>
</svg>